%TF.GenerationSoftware,KiCad,Pcbnew,(6.0.4)*%
%TF.CreationDate,2022-11-07T18:06:23+01:00*%
%TF.ProjectId,eurorack-bus-board-horizontal,6575726f-7261-4636-9b2d-6275732d626f,1*%
%TF.SameCoordinates,Original*%
%TF.FileFunction,Soldermask,Top*%
%TF.FilePolarity,Negative*%
%FSLAX46Y46*%
G04 Gerber Fmt 4.6, Leading zero omitted, Abs format (unit mm)*
G04 Created by KiCad (PCBNEW (6.0.4)) date 2022-11-07 18:06:23*
%MOMM*%
%LPD*%
G01*
G04 APERTURE LIST*
G04 Aperture macros list*
%AMRoundRect*
0 Rectangle with rounded corners*
0 $1 Rounding radius*
0 $2 $3 $4 $5 $6 $7 $8 $9 X,Y pos of 4 corners*
0 Add a 4 corners polygon primitive as box body*
4,1,4,$2,$3,$4,$5,$6,$7,$8,$9,$2,$3,0*
0 Add four circle primitives for the rounded corners*
1,1,$1+$1,$2,$3*
1,1,$1+$1,$4,$5*
1,1,$1+$1,$6,$7*
1,1,$1+$1,$8,$9*
0 Add four rect primitives between the rounded corners*
20,1,$1+$1,$2,$3,$4,$5,0*
20,1,$1+$1,$4,$5,$6,$7,0*
20,1,$1+$1,$6,$7,$8,$9,0*
20,1,$1+$1,$8,$9,$2,$3,0*%
G04 Aperture macros list end*
%TA.AperFunction,Profile*%
%ADD10C,0.100000*%
%TD*%
%ADD11RoundRect,0.250000X-0.600000X0.600000X-0.600000X-0.600000X0.600000X-0.600000X0.600000X0.600000X0*%
%ADD12C,1.700000*%
%ADD13C,2.500000*%
%ADD14R,3.000000X3.000000*%
%ADD15C,3.000000*%
G04 APERTURE END LIST*
D10*
X349250000Y-101600000D02*
X76200000Y-101600000D01*
X76200000Y-101600000D02*
X76200000Y-116840000D01*
X76200000Y-116840000D02*
X349250000Y-116840000D01*
X349250000Y-116840000D02*
X349250000Y-101600000D01*
D11*
X124460000Y-103522500D03*
D12*
X124460000Y-106062500D03*
X121920000Y-103522500D03*
X121920000Y-106062500D03*
X119380000Y-103522500D03*
X119380000Y-106062500D03*
X116840000Y-103522500D03*
X116840000Y-106062500D03*
X114300000Y-103522500D03*
X114300000Y-106062500D03*
X111760000Y-103522500D03*
X111760000Y-106062500D03*
X109220000Y-103522500D03*
X109220000Y-106062500D03*
X106680000Y-103522500D03*
X106680000Y-106062500D03*
D11*
X337820000Y-103522500D03*
D12*
X337820000Y-106062500D03*
X335280000Y-103522500D03*
X335280000Y-106062500D03*
X332740000Y-103522500D03*
X332740000Y-106062500D03*
X330200000Y-103522500D03*
X330200000Y-106062500D03*
X327660000Y-103522500D03*
X327660000Y-106062500D03*
X325120000Y-103522500D03*
X325120000Y-106062500D03*
X322580000Y-103522500D03*
X322580000Y-106062500D03*
X320040000Y-103522500D03*
X320040000Y-106062500D03*
D11*
X307340000Y-103522500D03*
D12*
X307340000Y-106062500D03*
X304800000Y-103522500D03*
X304800000Y-106062500D03*
X302260000Y-103522500D03*
X302260000Y-106062500D03*
X299720000Y-103522500D03*
X299720000Y-106062500D03*
X297180000Y-103522500D03*
X297180000Y-106062500D03*
X294640000Y-103522500D03*
X294640000Y-106062500D03*
X292100000Y-103522500D03*
X292100000Y-106062500D03*
X289560000Y-103522500D03*
X289560000Y-106062500D03*
D11*
X276860000Y-103522500D03*
D12*
X276860000Y-106062500D03*
X274320000Y-103522500D03*
X274320000Y-106062500D03*
X271780000Y-103522500D03*
X271780000Y-106062500D03*
X269240000Y-103522500D03*
X269240000Y-106062500D03*
X266700000Y-103522500D03*
X266700000Y-106062500D03*
X264160000Y-103522500D03*
X264160000Y-106062500D03*
X261620000Y-103522500D03*
X261620000Y-106062500D03*
X259080000Y-103522500D03*
X259080000Y-106062500D03*
D11*
X246380000Y-103522500D03*
D12*
X246380000Y-106062500D03*
X243840000Y-103522500D03*
X243840000Y-106062500D03*
X241300000Y-103522500D03*
X241300000Y-106062500D03*
X238760000Y-103522500D03*
X238760000Y-106062500D03*
X236220000Y-103522500D03*
X236220000Y-106062500D03*
X233680000Y-103522500D03*
X233680000Y-106062500D03*
X231140000Y-103522500D03*
X231140000Y-106062500D03*
X228600000Y-103522500D03*
X228600000Y-106062500D03*
D11*
X215900000Y-103522500D03*
D12*
X215900000Y-106062500D03*
X213360000Y-103522500D03*
X213360000Y-106062500D03*
X210820000Y-103522500D03*
X210820000Y-106062500D03*
X208280000Y-103522500D03*
X208280000Y-106062500D03*
X205740000Y-103522500D03*
X205740000Y-106062500D03*
X203200000Y-103522500D03*
X203200000Y-106062500D03*
X200660000Y-103522500D03*
X200660000Y-106062500D03*
X198120000Y-103522500D03*
X198120000Y-106062500D03*
D11*
X185420000Y-103522500D03*
D12*
X185420000Y-106062500D03*
X182880000Y-103522500D03*
X182880000Y-106062500D03*
X180340000Y-103522500D03*
X180340000Y-106062500D03*
X177800000Y-103522500D03*
X177800000Y-106062500D03*
X175260000Y-103522500D03*
X175260000Y-106062500D03*
X172720000Y-103522500D03*
X172720000Y-106062500D03*
X170180000Y-103522500D03*
X170180000Y-106062500D03*
X167640000Y-103522500D03*
X167640000Y-106062500D03*
D11*
X154940000Y-103522500D03*
D12*
X154940000Y-106062500D03*
X152400000Y-103522500D03*
X152400000Y-106062500D03*
X149860000Y-103522500D03*
X149860000Y-106062500D03*
X147320000Y-103522500D03*
X147320000Y-106062500D03*
X144780000Y-103522500D03*
X144780000Y-106062500D03*
X142240000Y-103522500D03*
X142240000Y-106062500D03*
X139700000Y-103522500D03*
X139700000Y-106062500D03*
X137160000Y-103522500D03*
X137160000Y-106062500D03*
D13*
X252730000Y-104902000D03*
X161290000Y-104902000D03*
D14*
X96520000Y-111760000D03*
D15*
X91440000Y-111760000D03*
X86360000Y-111760000D03*
X81280000Y-111760000D03*
D13*
X346202000Y-104902000D03*
X79502000Y-104902000D03*
M02*
