%TF.GenerationSoftware,KiCad,Pcbnew,(6.0.4)*%
%TF.CreationDate,2022-11-07T18:06:23+01:00*%
%TF.ProjectId,eurorack-bus-board-horizontal,6575726f-7261-4636-9b2d-6275732d626f,1*%
%TF.SameCoordinates,Original*%
%TF.FileFunction,Legend,Top*%
%TF.FilePolarity,Positive*%
%FSLAX46Y46*%
G04 Gerber Fmt 4.6, Leading zero omitted, Abs format (unit mm)*
G04 Created by KiCad (PCBNEW (6.0.4)) date 2022-11-07 18:06:23*
%MOMM*%
%LPD*%
G01*
G04 APERTURE LIST*
G04 Aperture macros list*
%AMRoundRect*
0 Rectangle with rounded corners*
0 $1 Rounding radius*
0 $2 $3 $4 $5 $6 $7 $8 $9 X,Y pos of 4 corners*
0 Add a 4 corners polygon primitive as box body*
4,1,4,$2,$3,$4,$5,$6,$7,$8,$9,$2,$3,0*
0 Add four circle primitives for the rounded corners*
1,1,$1+$1,$2,$3*
1,1,$1+$1,$4,$5*
1,1,$1+$1,$6,$7*
1,1,$1+$1,$8,$9*
0 Add four rect primitives between the rounded corners*
20,1,$1+$1,$2,$3,$4,$5,0*
20,1,$1+$1,$4,$5,$6,$7,0*
20,1,$1+$1,$6,$7,$8,$9,0*
20,1,$1+$1,$8,$9,$2,$3,0*%
G04 Aperture macros list end*
%TA.AperFunction,Profile*%
%ADD10C,0.100000*%
%TD*%
%ADD11C,0.150000*%
%ADD12C,0.120000*%
%ADD13RoundRect,0.250000X-0.600000X0.600000X-0.600000X-0.600000X0.600000X-0.600000X0.600000X0.600000X0*%
%ADD14C,1.700000*%
%ADD15C,2.500000*%
%ADD16R,3.000000X3.000000*%
%ADD17C,3.000000*%
G04 APERTURE END LIST*
D10*
X349250000Y-101600000D02*
X76200000Y-101600000D01*
X76200000Y-101600000D02*
X76200000Y-116840000D01*
X76200000Y-116840000D02*
X349250000Y-116840000D01*
X349250000Y-116840000D02*
X349250000Y-101600000D01*
D11*
X130012380Y-110070833D02*
X130726666Y-110070833D01*
X130869523Y-110118452D01*
X130964761Y-110213690D01*
X131012380Y-110356547D01*
X131012380Y-110451785D01*
X130107619Y-109642261D02*
X130060000Y-109594642D01*
X130012380Y-109499404D01*
X130012380Y-109261309D01*
X130060000Y-109166071D01*
X130107619Y-109118452D01*
X130202857Y-109070833D01*
X130298095Y-109070833D01*
X130440952Y-109118452D01*
X131012380Y-109689880D01*
X131012380Y-109070833D01*
X343372380Y-110547023D02*
X344086666Y-110547023D01*
X344229523Y-110594642D01*
X344324761Y-110689880D01*
X344372380Y-110832738D01*
X344372380Y-110927976D01*
X344372380Y-109547023D02*
X344372380Y-110118452D01*
X344372380Y-109832738D02*
X343372380Y-109832738D01*
X343515238Y-109927976D01*
X343610476Y-110023214D01*
X343658095Y-110118452D01*
X343372380Y-108927976D02*
X343372380Y-108832738D01*
X343420000Y-108737500D01*
X343467619Y-108689880D01*
X343562857Y-108642261D01*
X343753333Y-108594642D01*
X343991428Y-108594642D01*
X344181904Y-108642261D01*
X344277142Y-108689880D01*
X344324761Y-108737500D01*
X344372380Y-108832738D01*
X344372380Y-108927976D01*
X344324761Y-109023214D01*
X344277142Y-109070833D01*
X344181904Y-109118452D01*
X343991428Y-109166071D01*
X343753333Y-109166071D01*
X343562857Y-109118452D01*
X343467619Y-109070833D01*
X343420000Y-109023214D01*
X343372380Y-108927976D01*
X312892380Y-110070833D02*
X313606666Y-110070833D01*
X313749523Y-110118452D01*
X313844761Y-110213690D01*
X313892380Y-110356547D01*
X313892380Y-110451785D01*
X313892380Y-109547023D02*
X313892380Y-109356547D01*
X313844761Y-109261309D01*
X313797142Y-109213690D01*
X313654285Y-109118452D01*
X313463809Y-109070833D01*
X313082857Y-109070833D01*
X312987619Y-109118452D01*
X312940000Y-109166071D01*
X312892380Y-109261309D01*
X312892380Y-109451785D01*
X312940000Y-109547023D01*
X312987619Y-109594642D01*
X313082857Y-109642261D01*
X313320952Y-109642261D01*
X313416190Y-109594642D01*
X313463809Y-109547023D01*
X313511428Y-109451785D01*
X313511428Y-109261309D01*
X313463809Y-109166071D01*
X313416190Y-109118452D01*
X313320952Y-109070833D01*
X282412380Y-110070833D02*
X283126666Y-110070833D01*
X283269523Y-110118452D01*
X283364761Y-110213690D01*
X283412380Y-110356547D01*
X283412380Y-110451785D01*
X282840952Y-109451785D02*
X282793333Y-109547023D01*
X282745714Y-109594642D01*
X282650476Y-109642261D01*
X282602857Y-109642261D01*
X282507619Y-109594642D01*
X282460000Y-109547023D01*
X282412380Y-109451785D01*
X282412380Y-109261309D01*
X282460000Y-109166071D01*
X282507619Y-109118452D01*
X282602857Y-109070833D01*
X282650476Y-109070833D01*
X282745714Y-109118452D01*
X282793333Y-109166071D01*
X282840952Y-109261309D01*
X282840952Y-109451785D01*
X282888571Y-109547023D01*
X282936190Y-109594642D01*
X283031428Y-109642261D01*
X283221904Y-109642261D01*
X283317142Y-109594642D01*
X283364761Y-109547023D01*
X283412380Y-109451785D01*
X283412380Y-109261309D01*
X283364761Y-109166071D01*
X283317142Y-109118452D01*
X283221904Y-109070833D01*
X283031428Y-109070833D01*
X282936190Y-109118452D01*
X282888571Y-109166071D01*
X282840952Y-109261309D01*
X251932380Y-110070833D02*
X252646666Y-110070833D01*
X252789523Y-110118452D01*
X252884761Y-110213690D01*
X252932380Y-110356547D01*
X252932380Y-110451785D01*
X251932380Y-109689880D02*
X251932380Y-109023214D01*
X252932380Y-109451785D01*
X221452380Y-110070833D02*
X222166666Y-110070833D01*
X222309523Y-110118452D01*
X222404761Y-110213690D01*
X222452380Y-110356547D01*
X222452380Y-110451785D01*
X221452380Y-109166071D02*
X221452380Y-109356547D01*
X221500000Y-109451785D01*
X221547619Y-109499404D01*
X221690476Y-109594642D01*
X221880952Y-109642261D01*
X222261904Y-109642261D01*
X222357142Y-109594642D01*
X222404761Y-109547023D01*
X222452380Y-109451785D01*
X222452380Y-109261309D01*
X222404761Y-109166071D01*
X222357142Y-109118452D01*
X222261904Y-109070833D01*
X222023809Y-109070833D01*
X221928571Y-109118452D01*
X221880952Y-109166071D01*
X221833333Y-109261309D01*
X221833333Y-109451785D01*
X221880952Y-109547023D01*
X221928571Y-109594642D01*
X222023809Y-109642261D01*
X190972380Y-110070833D02*
X191686666Y-110070833D01*
X191829523Y-110118452D01*
X191924761Y-110213690D01*
X191972380Y-110356547D01*
X191972380Y-110451785D01*
X190972380Y-109118452D02*
X190972380Y-109594642D01*
X191448571Y-109642261D01*
X191400952Y-109594642D01*
X191353333Y-109499404D01*
X191353333Y-109261309D01*
X191400952Y-109166071D01*
X191448571Y-109118452D01*
X191543809Y-109070833D01*
X191781904Y-109070833D01*
X191877142Y-109118452D01*
X191924761Y-109166071D01*
X191972380Y-109261309D01*
X191972380Y-109499404D01*
X191924761Y-109594642D01*
X191877142Y-109642261D01*
X160492380Y-110070833D02*
X161206666Y-110070833D01*
X161349523Y-110118452D01*
X161444761Y-110213690D01*
X161492380Y-110356547D01*
X161492380Y-110451785D01*
X160492380Y-109689880D02*
X160492380Y-109070833D01*
X160873333Y-109404166D01*
X160873333Y-109261309D01*
X160920952Y-109166071D01*
X160968571Y-109118452D01*
X161063809Y-109070833D01*
X161301904Y-109070833D01*
X161397142Y-109118452D01*
X161444761Y-109166071D01*
X161492380Y-109261309D01*
X161492380Y-109547023D01*
X161444761Y-109642261D01*
X161397142Y-109689880D01*
D12*
X129670000Y-116222500D02*
X101470000Y-116222500D01*
X117602000Y-107840500D02*
X117620000Y-116222500D01*
X129670000Y-107792500D02*
X129670000Y-116222500D01*
X113520000Y-107840500D02*
X113520000Y-116222500D01*
X101470000Y-116222500D02*
X101470000Y-107792500D01*
X126730000Y-103022500D02*
X125730000Y-103522500D01*
X101470000Y-107792500D02*
X129670000Y-107792500D01*
X126730000Y-104022500D02*
X126730000Y-103022500D01*
X125730000Y-103522500D02*
X126730000Y-104022500D01*
X343030000Y-116222500D02*
X314830000Y-116222500D01*
X330962000Y-107840500D02*
X330980000Y-116222500D01*
X343030000Y-107792500D02*
X343030000Y-116222500D01*
X326880000Y-107840500D02*
X326880000Y-116222500D01*
X314830000Y-116222500D02*
X314830000Y-107792500D01*
X340090000Y-103022500D02*
X339090000Y-103522500D01*
X314830000Y-107792500D02*
X343030000Y-107792500D01*
X340090000Y-104022500D02*
X340090000Y-103022500D01*
X339090000Y-103522500D02*
X340090000Y-104022500D01*
X312550000Y-116222500D02*
X284350000Y-116222500D01*
X300482000Y-107840500D02*
X300500000Y-116222500D01*
X312550000Y-107792500D02*
X312550000Y-116222500D01*
X296400000Y-107840500D02*
X296400000Y-116222500D01*
X284350000Y-116222500D02*
X284350000Y-107792500D01*
X309610000Y-103022500D02*
X308610000Y-103522500D01*
X284350000Y-107792500D02*
X312550000Y-107792500D01*
X309610000Y-104022500D02*
X309610000Y-103022500D01*
X308610000Y-103522500D02*
X309610000Y-104022500D01*
X282070000Y-116222500D02*
X253870000Y-116222500D01*
X270002000Y-107840500D02*
X270020000Y-116222500D01*
X282070000Y-107792500D02*
X282070000Y-116222500D01*
X265920000Y-107840500D02*
X265920000Y-116222500D01*
X253870000Y-116222500D02*
X253870000Y-107792500D01*
X279130000Y-103022500D02*
X278130000Y-103522500D01*
X253870000Y-107792500D02*
X282070000Y-107792500D01*
X279130000Y-104022500D02*
X279130000Y-103022500D01*
X278130000Y-103522500D02*
X279130000Y-104022500D01*
X251590000Y-116222500D02*
X223390000Y-116222500D01*
X239522000Y-107840500D02*
X239540000Y-116222500D01*
X251590000Y-107792500D02*
X251590000Y-116222500D01*
X235440000Y-107840500D02*
X235440000Y-116222500D01*
X223390000Y-116222500D02*
X223390000Y-107792500D01*
X248650000Y-103022500D02*
X247650000Y-103522500D01*
X223390000Y-107792500D02*
X251590000Y-107792500D01*
X248650000Y-104022500D02*
X248650000Y-103022500D01*
X247650000Y-103522500D02*
X248650000Y-104022500D01*
X221110000Y-116222500D02*
X192910000Y-116222500D01*
X209042000Y-107840500D02*
X209060000Y-116222500D01*
X221110000Y-107792500D02*
X221110000Y-116222500D01*
X204960000Y-107840500D02*
X204960000Y-116222500D01*
X192910000Y-116222500D02*
X192910000Y-107792500D01*
X218170000Y-103022500D02*
X217170000Y-103522500D01*
X192910000Y-107792500D02*
X221110000Y-107792500D01*
X218170000Y-104022500D02*
X218170000Y-103022500D01*
X217170000Y-103522500D02*
X218170000Y-104022500D01*
X190630000Y-116222500D02*
X162430000Y-116222500D01*
X178562000Y-107840500D02*
X178580000Y-116222500D01*
X190630000Y-107792500D02*
X190630000Y-116222500D01*
X174480000Y-107840500D02*
X174480000Y-116222500D01*
X162430000Y-116222500D02*
X162430000Y-107792500D01*
X187690000Y-103022500D02*
X186690000Y-103522500D01*
X162430000Y-107792500D02*
X190630000Y-107792500D01*
X187690000Y-104022500D02*
X187690000Y-103022500D01*
X186690000Y-103522500D02*
X187690000Y-104022500D01*
X160150000Y-116222500D02*
X131950000Y-116222500D01*
X148082000Y-107840500D02*
X148100000Y-116222500D01*
X160150000Y-107792500D02*
X160150000Y-116222500D01*
X144000000Y-107840500D02*
X144000000Y-116222500D01*
X131950000Y-116222500D02*
X131950000Y-107792500D01*
X157210000Y-103022500D02*
X156210000Y-103522500D01*
X131950000Y-107792500D02*
X160150000Y-107792500D01*
X157210000Y-104022500D02*
X157210000Y-103022500D01*
X156210000Y-103522500D02*
X157210000Y-104022500D01*
X99060000Y-115570000D02*
X99060000Y-107950000D01*
X99060000Y-107950000D02*
X78740000Y-107950000D01*
X78740000Y-107950000D02*
X78740000Y-115570000D01*
X78740000Y-109220000D02*
X99060000Y-109220000D01*
X99060000Y-115570000D02*
X78740000Y-115570000D01*
%LPC*%
D13*
X124460000Y-103522500D03*
D14*
X124460000Y-106062500D03*
X121920000Y-103522500D03*
X121920000Y-106062500D03*
X119380000Y-103522500D03*
X119380000Y-106062500D03*
X116840000Y-103522500D03*
X116840000Y-106062500D03*
X114300000Y-103522500D03*
X114300000Y-106062500D03*
X111760000Y-103522500D03*
X111760000Y-106062500D03*
X109220000Y-103522500D03*
X109220000Y-106062500D03*
X106680000Y-103522500D03*
X106680000Y-106062500D03*
D13*
X337820000Y-103522500D03*
D14*
X337820000Y-106062500D03*
X335280000Y-103522500D03*
X335280000Y-106062500D03*
X332740000Y-103522500D03*
X332740000Y-106062500D03*
X330200000Y-103522500D03*
X330200000Y-106062500D03*
X327660000Y-103522500D03*
X327660000Y-106062500D03*
X325120000Y-103522500D03*
X325120000Y-106062500D03*
X322580000Y-103522500D03*
X322580000Y-106062500D03*
X320040000Y-103522500D03*
X320040000Y-106062500D03*
D13*
X307340000Y-103522500D03*
D14*
X307340000Y-106062500D03*
X304800000Y-103522500D03*
X304800000Y-106062500D03*
X302260000Y-103522500D03*
X302260000Y-106062500D03*
X299720000Y-103522500D03*
X299720000Y-106062500D03*
X297180000Y-103522500D03*
X297180000Y-106062500D03*
X294640000Y-103522500D03*
X294640000Y-106062500D03*
X292100000Y-103522500D03*
X292100000Y-106062500D03*
X289560000Y-103522500D03*
X289560000Y-106062500D03*
D13*
X276860000Y-103522500D03*
D14*
X276860000Y-106062500D03*
X274320000Y-103522500D03*
X274320000Y-106062500D03*
X271780000Y-103522500D03*
X271780000Y-106062500D03*
X269240000Y-103522500D03*
X269240000Y-106062500D03*
X266700000Y-103522500D03*
X266700000Y-106062500D03*
X264160000Y-103522500D03*
X264160000Y-106062500D03*
X261620000Y-103522500D03*
X261620000Y-106062500D03*
X259080000Y-103522500D03*
X259080000Y-106062500D03*
D13*
X246380000Y-103522500D03*
D14*
X246380000Y-106062500D03*
X243840000Y-103522500D03*
X243840000Y-106062500D03*
X241300000Y-103522500D03*
X241300000Y-106062500D03*
X238760000Y-103522500D03*
X238760000Y-106062500D03*
X236220000Y-103522500D03*
X236220000Y-106062500D03*
X233680000Y-103522500D03*
X233680000Y-106062500D03*
X231140000Y-103522500D03*
X231140000Y-106062500D03*
X228600000Y-103522500D03*
X228600000Y-106062500D03*
D13*
X215900000Y-103522500D03*
D14*
X215900000Y-106062500D03*
X213360000Y-103522500D03*
X213360000Y-106062500D03*
X210820000Y-103522500D03*
X210820000Y-106062500D03*
X208280000Y-103522500D03*
X208280000Y-106062500D03*
X205740000Y-103522500D03*
X205740000Y-106062500D03*
X203200000Y-103522500D03*
X203200000Y-106062500D03*
X200660000Y-103522500D03*
X200660000Y-106062500D03*
X198120000Y-103522500D03*
X198120000Y-106062500D03*
D13*
X185420000Y-103522500D03*
D14*
X185420000Y-106062500D03*
X182880000Y-103522500D03*
X182880000Y-106062500D03*
X180340000Y-103522500D03*
X180340000Y-106062500D03*
X177800000Y-103522500D03*
X177800000Y-106062500D03*
X175260000Y-103522500D03*
X175260000Y-106062500D03*
X172720000Y-103522500D03*
X172720000Y-106062500D03*
X170180000Y-103522500D03*
X170180000Y-106062500D03*
X167640000Y-103522500D03*
X167640000Y-106062500D03*
D13*
X154940000Y-103522500D03*
D14*
X154940000Y-106062500D03*
X152400000Y-103522500D03*
X152400000Y-106062500D03*
X149860000Y-103522500D03*
X149860000Y-106062500D03*
X147320000Y-103522500D03*
X147320000Y-106062500D03*
X144780000Y-103522500D03*
X144780000Y-106062500D03*
X142240000Y-103522500D03*
X142240000Y-106062500D03*
X139700000Y-103522500D03*
X139700000Y-106062500D03*
X137160000Y-103522500D03*
X137160000Y-106062500D03*
D15*
X252730000Y-104902000D03*
X161290000Y-104902000D03*
D16*
X96520000Y-111760000D03*
D17*
X91440000Y-111760000D03*
X86360000Y-111760000D03*
X81280000Y-111760000D03*
D15*
X346202000Y-104902000D03*
X79502000Y-104902000D03*
M02*
